<mxfile host="app.diagrams.net" modified="2021-08-18T13:41:06.327Z" agent="5.0 (Windows)" etag="zUzrHsqnT9FF7rINHiN8" version="14.9.5" type="github">
  <diagram id="hJhJQ0wu6yAVLHekUmwD" name="Page-1">
    <mxGraphModel dx="927" dy="752" grid="1" gridSize="10" guides="1" tooltips="1" connect="1" arrows="1" fold="1" page="1" pageScale="1" pageWidth="827" pageHeight="1169" math="0" shadow="0">
      <root>
        <mxCell id="0" />
        <mxCell id="1" parent="0" />
        <mxCell id="gdHf4d7Q6-KemiW4RzF_-1" value="" style="rounded=0;whiteSpace=wrap;html=1;" vertex="1" parent="1">
          <mxGeometry x="310" y="180" width="100" height="30" as="geometry" />
        </mxCell>
        <mxCell id="gdHf4d7Q6-KemiW4RzF_-2" value="" style="rounded=0;whiteSpace=wrap;html=1;" vertex="1" parent="1">
          <mxGeometry x="310" y="140" width="100" height="30" as="geometry" />
        </mxCell>
        <mxCell id="gdHf4d7Q6-KemiW4RzF_-3" value="" style="rounded=0;whiteSpace=wrap;html=1;" vertex="1" parent="1">
          <mxGeometry x="310" y="220" width="100" height="30" as="geometry" />
        </mxCell>
      </root>
    </mxGraphModel>
  </diagram>
</mxfile>
